<svg xmlns="http://www.w3.org/2000/svg" viewBox="0 0 16 16" fill="currentColor" id="Chat-Centered-Dots--Streamline-Phosphor.svg" height="16" width="16"><desc>Chat Centered Dots Streamline Icon: https://streamlinehq.com</desc><path d="M7.0953875 6.79390625c0 -0.696375 0.75384375 -1.13160625 1.35691875 -0.783425 0.60308125 0.3481875 0.60308125 1.21865625 0 1.56684375 -0.13753125 0.0794 -0.2935 0.1212 -0.45230625 0.12119375 -0.4995875 -0.00001875 -0.9046125 -0.405025 -0.9046125 -0.9046125Zm-2.4123125 0.9046125c0.696375 -0.00003125 1.13161875 -0.75389375 0.7834 -1.35695625 -0.3482125 -0.6030625 -1.21868125 -0.603025 -1.5668375 0.00006875 -0.07938125 0.1375125 -0.121175 0.29349375 -0.121175 0.452275 0 0.49961875 0.40499375 0.9046375 0.9046125 0.9046125Zm6.63385 0c0.696375 -0.00003125 1.1316125 -0.75389375 0.7834 -1.35695625 -0.3482125 -0.6030625 -1.21868125 -0.603025 -1.56684375 0.00006875 -0.07938125 0.1375125 -0.121175 0.29349375 -0.121175 0.452275 0 0.49961875 0.40499375 0.9046375 0.90461875 0.9046125ZM15.84 1.9692875v9.64923125c0 0.66611875 -0.54003125 1.206125 -1.20615625 1.20615625h-4.5554875l-1.0312625 1.80470625c-0.46085625 0.80605 -1.62146875 0.81094375 -2.0891 0.00880625 -0.00170625 -0.00293125 -0.0034 -0.0058625 -0.0050875 -0.00880625l-1.0312625 -1.80470625H1.36615625c-0.6661625 0.000025 -1.20615625 -0.53999375 -1.20615625 -1.20615625V1.9692875c0 -0.6661375 0.5400125 -1.20615 1.20615625 -1.20615h13.2676875c0.66614375 0 1.20615625 0.5400125 1.20615625 1.20615Zm-1.20615625 0H1.36615625v9.64923125h4.905275c0.2173875 -0.00194375 0.419 0.1132625 0.52769375 0.3015375l1.20615 2.11076875 1.20615625 -2.11076875c0.1086875 -0.188275 0.3103 -0.30348125 0.52769375 -0.3015375h4.89471875Z" stroke-width="1"></path></svg>