<!DOCTYPE svg PUBLIC "-//W3C//DTD SVG 1.1//EN" "http://www.w3.org/Graphics/SVG/1.1/DTD/svg11.dtd">

<!-- Uploaded to: SVG Repo, www.svgrepo.com, Transformed by: SVG Repo Mixer Tools -->
<svg width="800px" height="800px" viewBox="0 0 24.00 24.00" fill="none" xmlns="http://www.w3.org/2000/svg" stroke="#000000" stroke-width="0.00024000000000000003">

<g id="SVGRepo_bgCarrier" stroke-width="0"/>

<g id="SVGRepo_tracerCarrier" stroke-linecap="round" stroke-linejoin="round"/>

<g id="SVGRepo_iconCarrier"> <g id="style=bulk"> <g id="add"> <path id="rectangle" d="M1.25 7.25C1.25 3.93629 3.93629 1.25 7.25 1.25H16.75C20.0637 1.25 22.75 3.93629 22.75 7.25V16.75C22.75 20.0637 20.0637 22.75 16.75 22.75H7.25C3.93629 22.75 1.25 20.0637 1.25 16.75V7.25Z" fill="#615EF0"/> <path id="vector (Stroke)" fill-rule="evenodd" clip-rule="evenodd" d="M12.0248 6.32349C12.3578 6.32349 12.6277 6.59345 12.6277 6.92646L12.6277 16.8281C12.6277 17.1611 12.3577 17.431 12.0247 17.431C11.6917 17.431 11.4218 17.1611 11.4218 16.8281L11.4218 6.92645C11.4218 6.59344 11.6918 6.32349 12.0248 6.32349Z" fill="#ffffff"/> <path id="vector (Stroke)_2" fill-rule="evenodd" clip-rule="evenodd" d="M17.8486 12.0044C17.8486 12.3553 17.5641 12.6398 17.2132 12.6398L6.77865 12.6398C6.42771 12.6398 6.14323 12.3553 6.14323 12.0043C6.14323 11.6534 6.42772 11.3689 6.77865 11.3689L17.2132 11.369C17.5641 11.369 17.8486 11.6535 17.8486 12.0044Z" fill="#ffffff"/> </g> </g> </g>

</svg>