<svg xmlns="http://www.w3.org/2000/svg" viewBox="0 0 16 16" fill="#615ef0" id="Chat-Centered-Dots-Fill--Streamline-Phosphor-Fill.svg" height="16" width="16"><desc>Chat Centered Dots Fill Streamline Icon: https://streamlinehq.com</desc><path d="M14.63384375 0.76313125H1.36615625C0.69999375 0.76310625 0.16 1.303125 0.16 1.9692875v9.64923125c0 0.6661375 0.5400125 1.20615625 1.20615625 1.20615625h4.5554875l1.0312625 1.80470625c0.46085625 0.80605 1.62146875 0.81094375 2.0891 0.00880625 0.00170625 -0.00293125 0.00340625 -0.0058625 0.0050875 -0.00880625l1.0312625 -1.80470625h4.5554875c0.66611875 -0.00003125 1.20615625 -0.5400375 1.20615625 -1.20615625V1.9692875c0 -0.6661375 -0.5400125 -1.20615 -1.20615625 -1.20615ZM4.683075 7.69851875c-0.69636875 0.00003125 -1.1316 -0.75379375 -0.7834375 -1.3568875 0.34815625 -0.60309375 1.218625 -0.60313125 1.5668375 -0.00006875 0.0794125 0.137525 0.12121875 0.29353125 0.12121875 0.45234375 0 0.4995875 -0.405025 0.90459375 -0.90461875 0.9046125Zm3.316925 0c-0.696375 0.00003125 -1.1316 -0.75379375 -0.7834375 -1.3568875 0.34815625 -0.60309375 1.218625 -0.60313125 1.5668375 -0.00006875 0.07940625 0.137525 0.1212125 0.29353125 0.1212125 0.45234375 0 0.4995875 -0.405025 0.90459375 -0.9046125 0.9046125Zm3.316925 0c-0.696375 0.00003125 -1.1316 -0.75379375 -0.78344375 -1.3568875 0.3481625 -0.60309375 1.218625 -0.60313125 1.56684375 -0.00006875 0.07940625 0.137525 0.1212125 0.29353125 0.1212125 0.45234375 0 0.4995875 -0.405025 0.90459375 -0.9046125 0.9046125Z" stroke-width="1"></path></svg>