<svg xmlns="http://www.w3.org/2000/svg" viewBox="0 0 16 16" fill="currentColor" id="Users-Three--Streamline-Phosphor.svg" height="16" width="16"><desc>Users Three Streamline Icon: https://streamlinehq.com</desc><path d="M15.6293875 8.93090625c-0.23090625 0.173175 -0.558475 0.12638125 -0.73165625 -0.104525 -0.6387875 -0.85864375 -1.64736875 -1.36293125 -2.71755625 -1.35878125 -0.21010625 -0.00001875 -0.399775 -0.1258625 -0.48145 -0.31944375 -0.0548125 -0.12989375 -0.0548125 -0.276425 0 -0.406325 0.081675 -0.19358125 0.27134375 -0.319425 0.48145 -0.31944375 1.2069125 -0.00010625 1.9611125 -1.30669375 1.35756875 -2.35185625 -0.60355 -1.0451625 -2.1121875 -1.045025 -2.71555 0.00024375 -0.07086875 0.12276875 -0.12475625 0.25458125 -0.16019375 0.3918375 -0.100575 0.38973125 -0.58533125 0.52443125 -0.8725625 0.24246875 -0.13330625 -0.1308625 -0.18666875 -0.3229 -0.1399875 -0.503775 0.5033125 -1.94753125 2.92614375 -2.6198875 4.3611 -1.21024375 1.068225 1.0493875 1.0378375 2.7800375 -0.066575 3.79126875 0.710625 0.3076875 1.328375 0.79594375 1.79189375 1.41626875 0.17319375 0.231525 0.125475 0.5596875 -0.10648125 0.73230625Zm-3.5197625 4.024075c0.21581875 0.3395125 -0.01681875 0.78534375 -0.41875625 0.8025 -0.20235625 0.00863125 -0.391475 -0.100425 -0.48535625 -0.27989375 -1.44106875 -2.44010625 -4.97133125 -2.44010625 -6.41239375 0 -0.18648125 0.356475 -0.688925 0.3774 -0.9044 0.03766875 -0.10848125 -0.1710375 -0.10836875 -0.38935 0.0002875 -0.560275 0.5066625 -0.87054375 1.27920625 -1.555625 2.20409375 -1.95455 -1.916575 -1.46740625 -1.525925 -4.45928125 0.70316875 -5.3853875 2.2291 -0.9261 4.62481875 0.90815 4.3123 3.30165625 -0.107975 0.82691875 -0.54089375 1.5767625 -1.20304375 2.08373125 0.9248875 0.398925 1.69743125 1.08400625 2.2041 1.95455Zm-4.1103125 -2.35173125c1.6092125 -0.000075 2.6149875 -1.74214375 1.81031875 -3.13573125 -0.80466875 -1.39358125 -2.8161875 -1.39349375 -3.62073125 0.0001625 -0.18344375 0.31776875 -0.28001875 0.67821875 -0.28001875 1.0451375 0 1.15455 0.93588125 2.09048125 2.09043125 2.09043125Zm-3.65825 -3.65825625c0 -0.288625 -0.23398125 -0.52260625 -0.52260625 -0.52260625 -1.2069125 -0.00010625 -1.96111875 -1.30669375 -1.35756875 -2.35185625s2.1121875 -1.045025 2.71555 0.00024375c0.0708625 0.12276875 0.12475 0.25458125 0.16019375 0.3918375 0.100575 0.38973125 0.58533125 0.52443125 0.87255625 0.24246875 0.13330625 -0.1308625 0.18666875 -0.3229 0.13999375 -0.503775 -0.5033125 -1.94753125 -2.92615 -2.6198875 -4.36110625 -1.21024375 -1.068225 1.0493875 -1.03783125 2.7800375 0.066575 3.79126875 -0.70990625 0.307975 -1.32695625 0.7962125 -1.78993125 1.41626875 -0.24163125 0.32184375 -0.04425 0.78456875 0.35529375 0.8329125 0.185425 0.02243125 0.3687375 -0.0557625 0.48088125 -0.20513125 0.63879375 -0.85864375 1.64736875 -1.36293125 2.7175625 -1.35878125 0.28863125 0.00001875 0.52260625 -0.23396875 0.52260625 -0.52260625Z" stroke-width="1"></path></svg>